<svg width="29" height="34" viewBox="0 0 29 34" fill="none" xmlns="http://www.w3.org/2000/svg">
<g filter="url(#filter0_d_1324_1314)">
<path d="M15.4771 13.3467L15.4831 13.3636L15.4771 13.3804C15.4772 13.3749 15.4773 13.3693 15.4773 13.3636C15.4773 13.358 15.4772 13.3524 15.4771 13.3467Z" fill="black" stroke="black"/>
<mask id="path-2-inside-1_1324_1314" fill="white">
<path d="M23.6008 22.0809C23.3346 20.4894 22.2099 19.231 20.7367 18.8751C19.9816 18.6919 19.1865 18.5384 18.3741 18.4181C15.8878 18.0516 13.3679 18.043 10.8803 18.3856C10.796 18.3972 10.7114 18.4057 10.6273 18.4181C9.81508 18.5384 9.02042 18.6919 8.26747 18.8745C7.54856 19.0448 6.89417 19.4419 6.37494 20.0233C5.86436 20.5948 5.52759 21.307 5.40107 22.0804L4.97205 24.6309C4.92146 24.9224 5.00002 25.2175 5.18782 25.441C5.36489 25.6516 5.62123 25.7725 5.89089 25.7725H23.1109C23.3803 25.7725 23.6367 25.6518 23.8138 25.4412C24.0016 25.2181 24.0804 24.9235 24.03 24.6325L23.6008 22.0809ZM11.3854 19.2827C11.856 19.2251 12.3276 19.179 12.7998 19.1476C12.8701 19.1429 12.9403 19.1401 13.0106 19.136C14.0033 19.0781 14.998 19.0781 15.9906 19.1359C16.0611 19.1401 16.1318 19.1429 16.2024 19.1476C16.6744 19.179 17.1457 19.2251 17.6161 19.2827C17.6587 19.2879 17.7012 19.2937 17.7438 19.2991C17.384 20.5513 16.0503 21.4771 14.5009 21.4771C12.951 21.4771 11.6176 20.5511 11.2578 19.2992C11.3004 19.2937 11.3428 19.288 11.3854 19.2827ZM5.91299 24.7921L6.34273 22.2366C6.44014 21.6404 6.69744 21.0949 7.0866 20.6591C7.4751 20.2242 7.95958 19.9282 8.48974 19.8026C9.07397 19.6611 9.68736 19.5433 10.3105 19.4402C10.7316 21.1761 12.4402 22.4316 14.5009 22.4316C16.5616 22.4316 18.2699 21.1763 18.6913 19.4402C19.3146 19.5434 19.9277 19.6612 20.512 19.8029C21.6134 20.069 22.456 21.0249 22.6593 22.2389L23.089 24.7921L23.1109 24.818L5.91299 24.7921Z"/>
</mask>
<path d="M23.6008 22.0809C23.3346 20.4894 22.2099 19.231 20.7367 18.8751C19.9816 18.6919 19.1865 18.5384 18.3741 18.4181C15.8878 18.0516 13.3679 18.043 10.8803 18.3856C10.796 18.3972 10.7114 18.4057 10.6273 18.4181C9.81508 18.5384 9.02042 18.6919 8.26747 18.8745C7.54856 19.0448 6.89417 19.4419 6.37494 20.0233C5.86436 20.5948 5.52759 21.307 5.40107 22.0804L4.97205 24.6309C4.92146 24.9224 5.00002 25.2175 5.18782 25.441C5.36489 25.6516 5.62123 25.7725 5.89089 25.7725H23.1109C23.3803 25.7725 23.6367 25.6518 23.8138 25.4412C24.0016 25.2181 24.0804 24.9235 24.03 24.6325L23.6008 22.0809ZM11.3854 19.2827C11.856 19.2251 12.3276 19.179 12.7998 19.1476C12.8701 19.1429 12.9403 19.1401 13.0106 19.136C14.0033 19.0781 14.998 19.0781 15.9906 19.1359C16.0611 19.1401 16.1318 19.1429 16.2024 19.1476C16.6744 19.179 17.1457 19.2251 17.6161 19.2827C17.6587 19.2879 17.7012 19.2937 17.7438 19.2991C17.384 20.5513 16.0503 21.4771 14.5009 21.4771C12.951 21.4771 11.6176 20.5511 11.2578 19.2992C11.3004 19.2937 11.3428 19.288 11.3854 19.2827ZM5.91299 24.7921L6.34273 22.2366C6.44014 21.6404 6.69744 21.0949 7.0866 20.6591C7.4751 20.2242 7.95958 19.9282 8.48974 19.8026C9.07397 19.6611 9.68736 19.5433 10.3105 19.4402C10.7316 21.1761 12.4402 22.4316 14.5009 22.4316C16.5616 22.4316 18.2699 21.1763 18.6913 19.4402C19.3146 19.5434 19.9277 19.6612 20.512 19.8029C21.6134 20.069 22.456 21.0249 22.6593 22.2389L23.089 24.7921L23.1109 24.818L5.91299 24.7921Z" fill="black"/>
<path d="M23.6008 22.0809L22.6145 22.2458L22.6146 22.2468L23.6008 22.0809ZM20.7367 18.8751L20.5009 19.8469L20.5019 19.8472L20.7367 18.8751ZM18.3741 18.4181L18.5204 17.4289L18.5199 17.4288L18.3741 18.4181ZM10.8803 18.3856L11.0166 19.3762L11.0167 19.3762L10.8803 18.3856ZM10.6273 18.4181L10.4814 17.4288L10.4808 17.4289L10.6273 18.4181ZM8.26747 18.8745L8.49803 19.8475L8.50304 19.8463L8.26747 18.8745ZM6.37494 20.0233L7.12064 20.6896L7.12081 20.6894L6.37494 20.0233ZM5.40107 22.0804L6.38722 22.2463L6.38795 22.2419L5.40107 22.0804ZM4.97205 24.6309L5.95733 24.8019L5.95819 24.7968L4.97205 24.6309ZM5.18782 25.441L4.42222 26.0843L4.42238 26.0845L5.18782 25.441ZM23.8138 25.4412L23.0489 24.7969L23.0483 24.7976L23.8138 25.4412ZM24.03 24.6325L23.0439 24.7984L23.0447 24.803L24.03 24.6325ZM11.3854 19.2827L11.2638 18.2901L11.2628 18.2902L11.3854 19.2827ZM12.7998 19.1476L12.8662 20.1454L12.8662 20.1454L12.7998 19.1476ZM13.0106 19.136L12.9524 18.1377L12.9523 18.1377L13.0106 19.136ZM15.9906 19.1359L15.9324 20.1343L15.9325 20.1343L15.9906 19.1359ZM16.2024 19.1476L16.1356 20.1454L16.1359 20.1454L16.2024 19.1476ZM17.6161 19.2827L17.4944 20.2753L17.4948 20.2753L17.6161 19.2827ZM17.7438 19.2991L18.7049 19.5753L19.0268 18.455L17.8705 18.3072L17.7438 19.2991ZM11.2578 19.2992L11.1309 18.3073L9.9748 18.4552L10.2967 19.5754L11.2578 19.2992ZM5.91299 24.7921L4.92684 24.6263L4.73109 25.7903L5.91149 25.7921L5.91299 24.7921ZM6.34273 22.2366L7.32889 22.4024L7.32964 22.3978L6.34273 22.2366ZM7.0866 20.6591L6.34088 19.9928L6.34072 19.993L7.0866 20.6591ZM8.48974 19.8026L8.72022 20.7757L8.72515 20.7745L8.48974 19.8026ZM10.3105 19.4402L11.2824 19.2044L11.0634 18.3019L10.1472 18.4536L10.3105 19.4402ZM18.6913 19.4402L18.8546 18.4536L17.9386 18.302L17.7195 19.2043L18.6913 19.4402ZM20.512 19.8029L20.2763 20.7747L20.2771 20.7749L20.512 19.8029ZM22.6593 22.2389L21.673 22.404L21.6731 22.4049L22.6593 22.2389ZM23.089 24.7921L22.1029 24.9581L22.1484 25.2289L22.3259 25.4384L23.089 24.7921ZM23.1109 24.818L23.1094 25.818L25.271 25.8212L23.874 24.1717L23.1109 24.818ZM24.5871 21.9159C24.2603 19.962 22.8657 18.3606 20.9714 17.9031L20.5019 19.8472C21.5541 20.1013 22.4089 21.0168 22.6145 22.2458L24.5871 21.9159ZM20.9724 17.9033C20.186 17.7125 19.3609 17.5533 18.5204 17.4289L18.2277 19.4074C19.012 19.5234 19.7772 19.6714 20.5009 19.8469L20.9724 17.9033ZM18.5199 17.4288C15.9392 17.0484 13.3243 17.0396 10.7439 17.3949L11.0167 19.3762C13.4116 19.0465 15.8363 19.0549 18.2282 19.4074L18.5199 17.4288ZM10.744 17.3949C10.7408 17.3953 10.5384 17.4204 10.4814 17.4288L10.7731 19.4074C10.8844 19.391 10.8512 19.399 11.0166 19.3762L10.744 17.3949ZM10.4808 17.4289C9.64057 17.5533 8.8161 17.7125 8.0319 17.9026L8.50304 19.8463C9.22474 19.6714 9.98958 19.5235 10.7737 19.4073L10.4808 17.4289ZM8.03692 17.9014C7.1077 18.1216 6.27676 18.632 5.62907 19.3573L7.12081 20.6894C7.51157 20.2519 7.98941 19.968 8.49803 19.8475L8.03692 17.9014ZM5.62925 19.3571C4.98852 20.0741 4.57061 20.9627 4.41419 21.919L6.38795 22.2419C6.48458 21.6512 6.74019 21.1154 7.12064 20.6896L5.62925 19.3571ZM4.41492 21.9146L3.9859 24.465L5.95819 24.7968L6.38721 22.2463L4.41492 21.9146ZM3.98677 24.4599C3.88657 25.0373 4.04169 25.6314 4.42222 26.0843L5.95342 24.7976C5.95518 24.7997 5.95637 24.8023 5.95685 24.8041C5.95731 24.8058 5.95672 24.8053 5.95732 24.8019L3.98677 24.4599ZM4.42238 26.0845C4.78484 26.5156 5.31888 26.7725 5.89089 26.7725V24.7725C5.92359 24.7725 5.94494 24.7875 5.95326 24.7975L4.42238 26.0845ZM5.89089 26.7725H23.1109V24.7725H5.89089V26.7725ZM23.1109 26.7725C23.6823 26.7725 24.2164 26.5162 24.5792 26.0847L23.0483 24.7976C23.0569 24.7875 23.0784 24.7725 23.1109 24.7725V26.7725ZM24.5786 26.0854C24.9595 25.6332 25.1153 25.0394 25.0154 24.462L23.0447 24.803C23.0452 24.806 23.0446 24.8061 23.0452 24.804C23.0457 24.8019 23.0471 24.7992 23.0489 24.7969L24.5786 26.0854ZM25.0162 24.4666L24.5869 21.915L22.6146 22.2468L23.0439 24.7984L25.0162 24.4666ZM11.5069 20.2753C11.9614 20.2196 12.4145 20.1754 12.8662 20.1454L12.7334 18.1498C12.2407 18.1826 11.7506 18.2305 11.2638 18.2901L11.5069 20.2753ZM12.8662 20.1454C12.9392 20.1405 12.9662 20.1403 13.0689 20.1343L12.9523 18.1377C12.9144 18.1399 12.8009 18.1453 12.7334 18.1498L12.8662 20.1454ZM13.0688 20.1343C14.0227 20.0787 14.9785 20.0787 15.9324 20.1343L16.0487 18.1376C15.0174 18.0775 13.9838 18.0775 12.9524 18.1377L13.0688 20.1343ZM15.9325 20.1343C16.0347 20.1402 16.0636 20.1405 16.1356 20.1454L16.2692 18.1498C16.2001 18.1452 16.0876 18.1399 16.0486 18.1376L15.9325 20.1343ZM16.1359 20.1454C16.5875 20.1755 17.0403 20.2196 17.4944 20.2753L17.7378 18.2901C17.2511 18.2305 16.7614 18.1826 16.2689 18.1498L16.1359 20.1454ZM17.4948 20.2753C17.5353 20.2803 17.5625 20.2841 17.617 20.2911L17.8705 18.3072C17.8399 18.3033 17.7821 18.2956 17.7374 18.2901L17.4948 20.2753ZM16.7827 19.0229C16.5681 19.7696 15.6897 20.4771 14.5009 20.4771V22.4771C16.4108 22.4771 18.1998 21.3329 18.7049 19.5753L16.7827 19.0229ZM14.5009 20.4771C13.3116 20.4771 12.4335 19.7695 12.2189 19.023L10.2967 19.5754C10.8017 21.3326 12.5905 22.4771 14.5009 22.4771V20.4771ZM11.3847 20.2911C11.44 20.284 11.4659 20.2804 11.5079 20.2752L11.2628 18.2902C11.2197 18.2956 11.1607 18.3034 11.1309 18.3073L11.3847 20.2911ZM6.89915 24.9579L7.32888 22.4024L5.35657 22.0707L4.92684 24.6263L6.89915 24.9579ZM7.32964 22.3978C7.39745 21.9828 7.57446 21.6141 7.83249 21.3251L6.34072 19.993C5.82041 20.5756 5.48283 21.298 5.35582 22.0753L7.32964 22.3978ZM7.83233 21.3253C8.09496 21.0314 8.40388 20.8507 8.72022 20.7757L8.25926 18.8296C7.51529 19.0058 6.85525 19.4171 6.34088 19.9928L7.83233 21.3253ZM8.72515 20.7745C9.27833 20.6406 9.86627 20.5273 10.4739 20.4267L10.1472 18.4536C9.50845 18.5594 8.8696 18.6817 8.25433 18.8308L8.72515 20.7745ZM9.33871 19.6759C9.88504 21.9283 12.0526 23.4316 14.5009 23.4316V21.4316C12.8278 21.4316 11.5781 20.4239 11.2824 19.2044L9.33871 19.6759ZM14.5009 23.4316C16.9493 23.4316 19.1163 21.9285 19.6631 19.6761L17.7195 19.2043C17.4234 20.4241 16.1739 21.4316 14.5009 21.4316V23.4316ZM18.528 20.4268C19.1357 20.5274 19.7232 20.6406 20.2763 20.7747L20.7477 18.8311C20.1322 18.6818 19.4936 18.5594 18.8546 18.4536L18.528 20.4268ZM20.2771 20.7749C20.9474 20.9369 21.5286 21.5414 21.673 22.404L23.6455 22.0738C23.3835 20.5085 22.2793 19.2011 20.7469 18.8309L20.2771 20.7749ZM21.6731 22.4049L22.1029 24.9581L24.0751 24.6261L23.6454 22.0729L21.6731 22.4049ZM22.3259 25.4384L22.3478 25.4643L23.874 24.1717L23.8521 24.1458L22.3259 25.4384ZM23.1124 23.818L5.91449 23.7921L5.91149 25.7921L23.1094 25.818L23.1124 23.818Z" fill="black" mask="url(#path-2-inside-1_1324_1314)"/>
</g>
<defs>
<filter id="filter0_d_1324_1314" x="0" y="0" width="29" height="33.7725" filterUnits="userSpaceOnUse" color-interpolation-filters="sRGB">
<feFlood flood-opacity="0" result="BackgroundImageFix"/>
<feColorMatrix in="SourceAlpha" type="matrix" values="0 0 0 0 0 0 0 0 0 0 0 0 0 0 0 0 0 0 127 0" result="hardAlpha"/>
<feOffset dy="4"/>
<feGaussianBlur stdDeviation="2"/>
<feComposite in2="hardAlpha" operator="out"/>
<feColorMatrix type="matrix" values="0 0 0 0 0 0 0 0 0 0 0 0 0 0 0 0 0 0 0.25 0"/>
<feBlend mode="normal" in2="BackgroundImageFix" result="effect1_dropShadow_1324_1314"/>
<feBlend mode="normal" in="SourceGraphic" in2="effect1_dropShadow_1324_1314" result="shape"/>
</filter>
</defs>
</svg>
