<svg width="53" height="53" viewBox="0 0 53 53" fill="none" xmlns="http://www.w3.org/2000/svg">
<rect x="0.508865" y="0.508865" width="51.9823" height="51.9823" rx="12.7411" fill="white" stroke="#1782C5" stroke-width="1.01773"/>
<path d="M26.5125 36.7391C26.6211 36.9021 26.8041 37 27 37C27.1959 37 27.3789 36.9021 27.4875 36.7391C28.8742 34.6591 30.9167 32.0903 32.34 29.4778C33.478 27.3889 34.0312 25.6073 34.0312 24.0312C34.0312 20.1542 30.877 17 27 17C23.123 17 19.9688 20.1542 19.9688 24.0312C19.9688 25.6073 20.522 27.3889 21.66 29.4778C23.0823 32.0883 25.1286 34.6634 26.5125 36.7391ZM27 18.1719C30.2309 18.1719 32.8594 20.8004 32.8594 24.0312C32.8594 25.4064 32.3529 27.0046 31.3109 28.9171C30.0841 31.1691 28.3334 33.4534 27 35.3738C25.6668 33.4537 23.916 31.1692 22.6891 28.9171C21.6471 27.0046 21.1406 25.4064 21.1406 24.0312C21.1406 20.8004 23.7691 18.1719 27 18.1719Z" fill="black"/>
<path d="M27 27.5469C28.9385 27.5469 30.5156 25.9698 30.5156 24.0312C30.5156 22.0927 28.9385 20.5156 27 20.5156C25.0615 20.5156 23.4844 22.0927 23.4844 24.0312C23.4844 25.9698 25.0615 27.5469 27 27.5469ZM27 21.6875C28.2923 21.6875 29.3438 22.7389 29.3438 24.0312C29.3438 25.3236 28.2923 26.375 27 26.375C25.7077 26.375 24.6562 25.3236 24.6562 24.0312C24.6562 22.7389 25.7077 21.6875 27 21.6875Z" fill="black"/>
</svg>
