<svg width="24" height="24" viewBox="0 0 24 24" fill="none" xmlns="http://www.w3.org/2000/svg">
<path d="M11.5125 21.7391C11.6211 21.9021 11.8041 22 12 22C12.1959 22 12.3789 21.9021 12.4875 21.7391C13.8742 19.6591 15.9167 17.0903 17.34 14.4778C18.478 12.3889 19.0312 10.6073 19.0312 9.03125C19.0312 5.15422 15.877 2 12 2C8.12297 2 4.96875 5.15422 4.96875 9.03125C4.96875 10.6073 5.52199 12.3889 6.66004 14.4778C8.08227 17.0883 10.1286 19.6634 11.5125 21.7391ZM12 3.17188C15.2309 3.17188 17.8594 5.80039 17.8594 9.03125C17.8594 10.4064 17.3529 12.0046 16.3109 13.9171C15.0841 16.1691 13.3334 18.4534 12 20.3738C10.6668 18.4537 8.91602 16.1692 7.6891 13.9171C6.64715 12.0046 6.14062 10.4064 6.14062 9.03125C6.14062 5.80039 8.76914 3.17188 12 3.17188Z" fill="black"/>
<path d="M12 12.5469C13.9385 12.5469 15.5156 10.9698 15.5156 9.03125C15.5156 7.09273 13.9385 5.51562 12 5.51562C10.0615 5.51562 8.48438 7.09273 8.48438 9.03125C8.48438 10.9698 10.0615 12.5469 12 12.5469ZM12 6.6875C13.2923 6.6875 14.3438 7.73891 14.3438 9.03125C14.3438 10.3236 13.2923 11.375 12 11.375C10.7077 11.375 9.65625 10.3236 9.65625 9.03125C9.65625 7.73891 10.7077 6.6875 12 6.6875Z" fill="black"/>
</svg>
