<svg width="26" height="27" viewBox="0 0 26 27" fill="none" xmlns="http://www.w3.org/2000/svg">
<mask id="path-1-outside-1_1324_1320" maskUnits="userSpaceOnUse" x="0" y="0" width="26" height="27" fill="black">
<rect fill="white" width="26" height="27"/>
<path d="M1.6553 15.5994C1.66297 15.5994 1.67064 15.5994 1.67832 15.5983C1.87894 15.5863 2.03132 15.4131 2.01925 15.2124C1.97321 14.4703 2.00391 13.7171 2.11025 12.9716C2.77789 8.28163 6.29477 4.60565 10.9146 3.71991C11.1623 4.63969 12.0032 5.3194 12.9997 5.3194C14.1903 5.3194 15.1594 4.35028 15.1594 3.1597C15.1594 1.96912 14.1903 1 12.9997 1C11.8651 1 10.9332 1.87923 10.8477 2.99198C8.53889 3.42393 6.36372 4.57065 4.69525 6.24137C2.89293 8.04588 1.75065 10.3372 1.39001 12.8684C1.276 13.6621 1.24311 14.4657 1.29244 15.2572C1.3045 15.4502 1.46456 15.5982 1.65532 15.5982L1.6553 15.5994ZM12.9998 1.72905C13.7891 1.72905 14.4316 2.37149 14.4316 3.16083C14.4316 3.95016 13.7891 4.5926 12.9998 4.5926C12.2499 4.5926 11.6338 4.01375 11.5735 3.28033V3.27704C11.5702 3.23867 11.5681 3.2003 11.5681 3.16193C11.5681 2.37259 12.2105 1.73015 12.9998 1.73015L12.9998 1.72905ZM2.17506 16.6595C2.29018 16.825 2.24742 17.0508 2.08188 17.1649C1.91524 17.2778 1.69051 17.2372 1.57539 17.0717C1.46247 16.905 1.50413 16.6781 1.66967 16.5652C1.83521 16.4523 2.06103 16.4939 2.17506 16.6595ZM1.28705 21.288C1.57537 21.7879 2.0413 22.1453 2.59823 22.2944C2.7846 22.3448 2.97315 22.3689 3.16063 22.3689C3.48074 22.3689 3.79647 22.2965 4.08919 22.1562C5.61852 23.9399 7.6981 25.2499 9.97952 25.8605C10.9793 26.128 11.9956 26.2607 13.0075 26.2607C14.4886 26.2607 15.9619 25.9757 17.3708 25.41C18.1097 25.114 18.8223 24.7402 19.4888 24.3005C19.6566 24.1898 19.7026 23.964 19.5919 23.7962C19.4811 23.6285 19.2553 23.5825 19.0876 23.6932C18.4627 24.1065 17.7939 24.4562 17.1011 24.7347C12.7061 26.5008 7.7638 25.2916 4.68673 21.7351C4.95203 21.4708 5.14498 21.1398 5.24475 20.7681C5.39384 20.2112 5.3182 19.6291 5.02987 19.1292C4.74156 18.6293 4.27562 18.2719 3.7176 18.1228C3.15958 17.9737 2.57745 18.0504 2.07865 18.3388C1.04812 18.934 0.694024 20.2573 1.28822 21.2878L1.28705 21.288ZM2.44146 18.9682C2.77254 18.7764 3.15844 18.7259 3.52789 18.8246C3.89734 18.9233 4.20651 19.1601 4.39836 19.4922C4.58912 19.8233 4.63955 20.2092 4.54088 20.5787C4.44221 20.9481 4.20432 21.2562 3.87324 21.448C3.54215 21.6399 3.15625 21.6903 2.7868 21.5917C2.41735 21.493 2.10928 21.2562 1.91743 20.9251C1.52387 20.241 1.75846 19.364 2.44146 18.9693L2.44146 18.9682ZM20.4327 23.3161C20.2518 23.2306 20.1728 23.0124 20.2605 22.8315C20.3471 22.6506 20.5642 22.5739 20.7451 22.6605C20.926 22.746 21.0027 22.9641 20.9172 23.145C20.8306 23.3259 20.6136 23.4027 20.4327 23.3161ZM17.8958 4.67012C18.5635 5.00339 19.2015 5.40683 19.7913 5.86945C23.5175 8.79329 24.9418 13.6783 23.4002 18.1216C22.4804 17.876 21.4718 18.2641 20.9719 19.128C20.3777 20.1607 20.7318 21.4839 21.7624 22.0771C22.0956 22.27 22.4651 22.3676 22.8389 22.3676C23.0264 22.3676 23.216 22.3424 23.4013 22.2931C23.9582 22.144 24.4241 21.7866 24.7114 21.2867C25.2782 20.3055 24.9833 19.0579 24.0624 18.4274C24.8418 16.2118 24.9372 13.7551 24.3244 11.4737C23.6633 9.0114 22.2502 6.87463 20.2384 5.29596C19.6102 4.80263 18.9305 4.37287 18.219 4.01768C18.0392 3.92778 17.821 4.00123 17.7311 4.18103C17.6413 4.36082 17.7147 4.57899 17.8945 4.66888L17.8958 4.67012ZM24.0811 20.9227C23.8903 21.2538 23.5823 21.4905 23.2128 21.5903C22.8434 21.689 22.4575 21.6386 22.1253 21.4467C21.4423 21.0531 21.2077 20.1761 21.6013 19.4909C21.8666 19.0315 22.3489 18.775 22.8445 18.775C23.0867 18.775 23.3323 18.8364 23.5571 18.9669C24.2412 19.3615 24.4758 20.2397 24.0811 20.9227ZM16.1723 3.7493C16.1559 3.54868 16.3061 3.37328 16.5067 3.35902C16.7073 3.34258 16.8827 3.49277 16.897 3.69339C16.9134 3.89401 16.7643 4.06722 16.5637 4.08367C16.3631 4.10011 16.1877 3.94992 16.1723 3.7493ZM12.9996 7.80219C9.29186 7.80219 6.2771 10.8181 6.2771 14.5246C6.2771 18.2323 9.29299 21.2471 12.9996 21.2471C16.7072 21.2471 19.722 18.2312 19.722 14.5246C19.722 10.817 16.7061 7.80219 12.9996 7.80219ZM8.96294 18.9547V17.8321C8.96294 16.8104 9.87068 15.9794 10.9856 15.9794H15.0144C16.1293 15.9794 17.037 16.8104 17.037 17.8321V18.9526C15.9703 19.9261 14.5528 20.5202 12.9993 20.5202C11.4458 20.5202 10.0297 19.926 8.96294 18.9547ZM17.7639 18.1588V17.8321C17.7639 16.4091 16.5306 15.2515 15.0133 15.2515H10.9845C9.46837 15.2515 8.23392 16.4091 8.23392 17.8321V18.161C7.46213 17.1513 7.00278 15.8917 7.00278 14.5257C7.00278 11.2205 9.69199 8.53017 12.9984 8.53017C16.3047 8.53017 18.9939 11.2194 18.9939 14.5257C18.9939 15.8906 18.5346 17.1503 17.7639 18.1599L17.7639 18.1588ZM12.9993 9.68343C11.5708 9.68343 10.4098 10.8455 10.4098 12.2729C10.4098 13.7014 11.5719 14.8624 12.9993 14.8624C14.4277 14.8624 15.5898 13.7003 15.5898 12.2729C15.5898 10.8444 14.4278 9.68343 12.9993 9.68343ZM12.9993 14.1343C11.9732 14.1343 11.1367 13.2989 11.1367 12.2717C11.1367 11.2445 11.9721 10.4091 12.9993 10.4091C14.0265 10.4091 14.863 11.2445 14.863 12.2717C14.863 13.2989 14.0265 14.1343 12.9993 14.1343Z"/>
</mask>
<path d="M1.6553 15.5994C1.66297 15.5994 1.67064 15.5994 1.67832 15.5983C1.87894 15.5863 2.03132 15.4131 2.01925 15.2124C1.97321 14.4703 2.00391 13.7171 2.11025 12.9716C2.77789 8.28163 6.29477 4.60565 10.9146 3.71991C11.1623 4.63969 12.0032 5.3194 12.9997 5.3194C14.1903 5.3194 15.1594 4.35028 15.1594 3.1597C15.1594 1.96912 14.1903 1 12.9997 1C11.8651 1 10.9332 1.87923 10.8477 2.99198C8.53889 3.42393 6.36372 4.57065 4.69525 6.24137C2.89293 8.04588 1.75065 10.3372 1.39001 12.8684C1.276 13.6621 1.24311 14.4657 1.29244 15.2572C1.3045 15.4502 1.46456 15.5982 1.65532 15.5982L1.6553 15.5994ZM12.9998 1.72905C13.7891 1.72905 14.4316 2.37149 14.4316 3.16083C14.4316 3.95016 13.7891 4.5926 12.9998 4.5926C12.2499 4.5926 11.6338 4.01375 11.5735 3.28033V3.27704C11.5702 3.23867 11.5681 3.2003 11.5681 3.16193C11.5681 2.37259 12.2105 1.73015 12.9998 1.73015L12.9998 1.72905ZM2.17506 16.6595C2.29018 16.825 2.24742 17.0508 2.08188 17.1649C1.91524 17.2778 1.69051 17.2372 1.57539 17.0717C1.46247 16.905 1.50413 16.6781 1.66967 16.5652C1.83521 16.4523 2.06103 16.4939 2.17506 16.6595ZM1.28705 21.288C1.57537 21.7879 2.0413 22.1453 2.59823 22.2944C2.7846 22.3448 2.97315 22.3689 3.16063 22.3689C3.48074 22.3689 3.79647 22.2965 4.08919 22.1562C5.61852 23.9399 7.6981 25.2499 9.97952 25.8605C10.9793 26.128 11.9956 26.2607 13.0075 26.2607C14.4886 26.2607 15.9619 25.9757 17.3708 25.41C18.1097 25.114 18.8223 24.7402 19.4888 24.3005C19.6566 24.1898 19.7026 23.964 19.5919 23.7962C19.4811 23.6285 19.2553 23.5825 19.0876 23.6932C18.4627 24.1065 17.7939 24.4562 17.1011 24.7347C12.7061 26.5008 7.7638 25.2916 4.68673 21.7351C4.95203 21.4708 5.14498 21.1398 5.24475 20.7681C5.39384 20.2112 5.3182 19.6291 5.02987 19.1292C4.74156 18.6293 4.27562 18.2719 3.7176 18.1228C3.15958 17.9737 2.57745 18.0504 2.07865 18.3388C1.04812 18.934 0.694024 20.2573 1.28822 21.2878L1.28705 21.288ZM2.44146 18.9682C2.77254 18.7764 3.15844 18.7259 3.52789 18.8246C3.89734 18.9233 4.20651 19.1601 4.39836 19.4922C4.58912 19.8233 4.63955 20.2092 4.54088 20.5787C4.44221 20.9481 4.20432 21.2562 3.87324 21.448C3.54215 21.6399 3.15625 21.6903 2.7868 21.5917C2.41735 21.493 2.10928 21.2562 1.91743 20.9251C1.52387 20.241 1.75846 19.364 2.44146 18.9693L2.44146 18.9682ZM20.4327 23.3161C20.2518 23.2306 20.1728 23.0124 20.2605 22.8315C20.3471 22.6506 20.5642 22.5739 20.7451 22.6605C20.926 22.746 21.0027 22.9641 20.9172 23.145C20.8306 23.3259 20.6136 23.4027 20.4327 23.3161ZM17.8958 4.67012C18.5635 5.00339 19.2015 5.40683 19.7913 5.86945C23.5175 8.79329 24.9418 13.6783 23.4002 18.1216C22.4804 17.876 21.4718 18.2641 20.9719 19.128C20.3777 20.1607 20.7318 21.4839 21.7624 22.0771C22.0956 22.27 22.4651 22.3676 22.8389 22.3676C23.0264 22.3676 23.216 22.3424 23.4013 22.2931C23.9582 22.144 24.4241 21.7866 24.7114 21.2867C25.2782 20.3055 24.9833 19.0579 24.0624 18.4274C24.8418 16.2118 24.9372 13.7551 24.3244 11.4737C23.6633 9.0114 22.2502 6.87463 20.2384 5.29596C19.6102 4.80263 18.9305 4.37287 18.219 4.01768C18.0392 3.92778 17.821 4.00123 17.7311 4.18103C17.6413 4.36082 17.7147 4.57899 17.8945 4.66888L17.8958 4.67012ZM24.0811 20.9227C23.8903 21.2538 23.5823 21.4905 23.2128 21.5903C22.8434 21.689 22.4575 21.6386 22.1253 21.4467C21.4423 21.0531 21.2077 20.1761 21.6013 19.4909C21.8666 19.0315 22.3489 18.775 22.8445 18.775C23.0867 18.775 23.3323 18.8364 23.5571 18.9669C24.2412 19.3615 24.4758 20.2397 24.0811 20.9227ZM16.1723 3.7493C16.1559 3.54868 16.3061 3.37328 16.5067 3.35902C16.7073 3.34258 16.8827 3.49277 16.897 3.69339C16.9134 3.89401 16.7643 4.06722 16.5637 4.08367C16.3631 4.10011 16.1877 3.94992 16.1723 3.7493ZM12.9996 7.80219C9.29186 7.80219 6.2771 10.8181 6.2771 14.5246C6.2771 18.2323 9.29299 21.2471 12.9996 21.2471C16.7072 21.2471 19.722 18.2312 19.722 14.5246C19.722 10.817 16.7061 7.80219 12.9996 7.80219ZM8.96294 18.9547V17.8321C8.96294 16.8104 9.87068 15.9794 10.9856 15.9794H15.0144C16.1293 15.9794 17.037 16.8104 17.037 17.8321V18.9526C15.9703 19.9261 14.5528 20.5202 12.9993 20.5202C11.4458 20.5202 10.0297 19.926 8.96294 18.9547ZM17.7639 18.1588V17.8321C17.7639 16.4091 16.5306 15.2515 15.0133 15.2515H10.9845C9.46837 15.2515 8.23392 16.4091 8.23392 17.8321V18.161C7.46213 17.1513 7.00278 15.8917 7.00278 14.5257C7.00278 11.2205 9.69199 8.53017 12.9984 8.53017C16.3047 8.53017 18.9939 11.2194 18.9939 14.5257C18.9939 15.8906 18.5346 17.1503 17.7639 18.1599L17.7639 18.1588ZM12.9993 9.68343C11.5708 9.68343 10.4098 10.8455 10.4098 12.2729C10.4098 13.7014 11.5719 14.8624 12.9993 14.8624C14.4277 14.8624 15.5898 13.7003 15.5898 12.2729C15.5898 10.8444 14.4278 9.68343 12.9993 9.68343ZM12.9993 14.1343C11.9732 14.1343 11.1367 13.2989 11.1367 12.2717C11.1367 11.2445 11.9721 10.4091 12.9993 10.4091C14.0265 10.4091 14.863 11.2445 14.863 12.2717C14.863 13.2989 14.0265 14.1343 12.9993 14.1343Z" fill="black"/>
<path d="M1.6553 15.5994C1.66297 15.5994 1.67064 15.5994 1.67832 15.5983C1.87894 15.5863 2.03132 15.4131 2.01925 15.2124C1.97321 14.4703 2.00391 13.7171 2.11025 12.9716C2.77789 8.28163 6.29477 4.60565 10.9146 3.71991C11.1623 4.63969 12.0032 5.3194 12.9997 5.3194C14.1903 5.3194 15.1594 4.35028 15.1594 3.1597C15.1594 1.96912 14.1903 1 12.9997 1C11.8651 1 10.9332 1.87923 10.8477 2.99198C8.53889 3.42393 6.36372 4.57065 4.69525 6.24137C2.89293 8.04588 1.75065 10.3372 1.39001 12.8684C1.276 13.6621 1.24311 14.4657 1.29244 15.2572C1.3045 15.4502 1.46456 15.5982 1.65532 15.5982L1.6553 15.5994ZM12.9998 1.72905C13.7891 1.72905 14.4316 2.37149 14.4316 3.16083C14.4316 3.95016 13.7891 4.5926 12.9998 4.5926C12.2499 4.5926 11.6338 4.01375 11.5735 3.28033V3.27704C11.5702 3.23867 11.5681 3.2003 11.5681 3.16193C11.5681 2.37259 12.2105 1.73015 12.9998 1.73015L12.9998 1.72905ZM2.17506 16.6595C2.29018 16.825 2.24742 17.0508 2.08188 17.1649C1.91524 17.2778 1.69051 17.2372 1.57539 17.0717C1.46247 16.905 1.50413 16.6781 1.66967 16.5652C1.83521 16.4523 2.06103 16.4939 2.17506 16.6595ZM1.28705 21.288C1.57537 21.7879 2.0413 22.1453 2.59823 22.2944C2.7846 22.3448 2.97315 22.3689 3.16063 22.3689C3.48074 22.3689 3.79647 22.2965 4.08919 22.1562C5.61852 23.9399 7.6981 25.2499 9.97952 25.8605C10.9793 26.128 11.9956 26.2607 13.0075 26.2607C14.4886 26.2607 15.9619 25.9757 17.3708 25.41C18.1097 25.114 18.8223 24.7402 19.4888 24.3005C19.6566 24.1898 19.7026 23.964 19.5919 23.7962C19.4811 23.6285 19.2553 23.5825 19.0876 23.6932C18.4627 24.1065 17.7939 24.4562 17.1011 24.7347C12.7061 26.5008 7.7638 25.2916 4.68673 21.7351C4.95203 21.4708 5.14498 21.1398 5.24475 20.7681C5.39384 20.2112 5.3182 19.6291 5.02987 19.1292C4.74156 18.6293 4.27562 18.2719 3.7176 18.1228C3.15958 17.9737 2.57745 18.0504 2.07865 18.3388C1.04812 18.934 0.694024 20.2573 1.28822 21.2878L1.28705 21.288ZM2.44146 18.9682C2.77254 18.7764 3.15844 18.7259 3.52789 18.8246C3.89734 18.9233 4.20651 19.1601 4.39836 19.4922C4.58912 19.8233 4.63955 20.2092 4.54088 20.5787C4.44221 20.9481 4.20432 21.2562 3.87324 21.448C3.54215 21.6399 3.15625 21.6903 2.7868 21.5917C2.41735 21.493 2.10928 21.2562 1.91743 20.9251C1.52387 20.241 1.75846 19.364 2.44146 18.9693L2.44146 18.9682ZM20.4327 23.3161C20.2518 23.2306 20.1728 23.0124 20.2605 22.8315C20.3471 22.6506 20.5642 22.5739 20.7451 22.6605C20.926 22.746 21.0027 22.9641 20.9172 23.145C20.8306 23.3259 20.6136 23.4027 20.4327 23.3161ZM17.8958 4.67012C18.5635 5.00339 19.2015 5.40683 19.7913 5.86945C23.5175 8.79329 24.9418 13.6783 23.4002 18.1216C22.4804 17.876 21.4718 18.2641 20.9719 19.128C20.3777 20.1607 20.7318 21.4839 21.7624 22.0771C22.0956 22.27 22.4651 22.3676 22.8389 22.3676C23.0264 22.3676 23.216 22.3424 23.4013 22.2931C23.9582 22.144 24.4241 21.7866 24.7114 21.2867C25.2782 20.3055 24.9833 19.0579 24.0624 18.4274C24.8418 16.2118 24.9372 13.7551 24.3244 11.4737C23.6633 9.0114 22.2502 6.87463 20.2384 5.29596C19.6102 4.80263 18.9305 4.37287 18.219 4.01768C18.0392 3.92778 17.821 4.00123 17.7311 4.18103C17.6413 4.36082 17.7147 4.57899 17.8945 4.66888L17.8958 4.67012ZM24.0811 20.9227C23.8903 21.2538 23.5823 21.4905 23.2128 21.5903C22.8434 21.689 22.4575 21.6386 22.1253 21.4467C21.4423 21.0531 21.2077 20.1761 21.6013 19.4909C21.8666 19.0315 22.3489 18.775 22.8445 18.775C23.0867 18.775 23.3323 18.8364 23.5571 18.9669C24.2412 19.3615 24.4758 20.2397 24.0811 20.9227ZM16.1723 3.7493C16.1559 3.54868 16.3061 3.37328 16.5067 3.35902C16.7073 3.34258 16.8827 3.49277 16.897 3.69339C16.9134 3.89401 16.7643 4.06722 16.5637 4.08367C16.3631 4.10011 16.1877 3.94992 16.1723 3.7493ZM12.9996 7.80219C9.29186 7.80219 6.2771 10.8181 6.2771 14.5246C6.2771 18.2323 9.29299 21.2471 12.9996 21.2471C16.7072 21.2471 19.722 18.2312 19.722 14.5246C19.722 10.817 16.7061 7.80219 12.9996 7.80219ZM8.96294 18.9547V17.8321C8.96294 16.8104 9.87068 15.9794 10.9856 15.9794H15.0144C16.1293 15.9794 17.037 16.8104 17.037 17.8321V18.9526C15.9703 19.9261 14.5528 20.5202 12.9993 20.5202C11.4458 20.5202 10.0297 19.926 8.96294 18.9547ZM17.7639 18.1588V17.8321C17.7639 16.4091 16.5306 15.2515 15.0133 15.2515H10.9845C9.46837 15.2515 8.23392 16.4091 8.23392 17.8321V18.161C7.46213 17.1513 7.00278 15.8917 7.00278 14.5257C7.00278 11.2205 9.69199 8.53017 12.9984 8.53017C16.3047 8.53017 18.9939 11.2194 18.9939 14.5257C18.9939 15.8906 18.5346 17.1503 17.7639 18.1599L17.7639 18.1588ZM12.9993 9.68343C11.5708 9.68343 10.4098 10.8455 10.4098 12.2729C10.4098 13.7014 11.5719 14.8624 12.9993 14.8624C14.4277 14.8624 15.5898 13.7003 15.5898 12.2729C15.5898 10.8444 14.4278 9.68343 12.9993 9.68343ZM12.9993 14.1343C11.9732 14.1343 11.1367 13.2989 11.1367 12.2717C11.1367 11.2445 11.9721 10.4091 12.9993 10.4091C14.0265 10.4091 14.863 11.2445 14.863 12.2717C14.863 13.2989 14.0265 14.1343 12.9993 14.1343Z" stroke="black" stroke-width="0.4" mask="url(#path-1-outside-1_1324_1320)"/>
</svg>
